<svg title="Instagram Logo" viewBox="0 0 39 40"><g id="instagram"><path d="M11.44 2.93a8.5 8.5 0 00-8.5 8.5v17.14a8.5 8.5 0 008.5 8.5h16.09c4.7 0 8.5-3.8 8.5-8.5V11.43a8.5 8.5 0 00-8.5-8.5h-16.1zM0 11.43C0 5.12 5.12 0 11.44 0h16.09c6.31 0 11.44 5.12 11.44 11.43v17.14c0 6.31-5.13 11.43-11.44 11.43h-16.1A11.44 11.44 0 010 28.57V11.43z"></path><path d="M10.6 3.58a6.98 6.98 0 00-7.01 7.06 7.05 7.05 0 007.05 7.05 7.13 7.13 0 007.06-7.1 6.78 6.78 0 00-1.67-4.9c-1.1-1.18-2.85-2.03-5.44-2.1M0 10.63C0 4.82 4.73-.16 10.7 0c3.35.1 6.08 1.24 7.95 3.23a10.34 10.34 0 012.64 7.45 10.71 10.71 0 01-10.65 10.59A10.64 10.64 0 010 10.64z" transform="translate(8.84 9.3)"></path><path d="M2.48 4.96a2.48 2.48 0 100-4.96 2.48 2.48 0 000 4.96z" transform="translate(27.9 6.54)"></path></g></svg>