<svg title="Twitter Logo" viewBox="0 0 45 37"><path d="M45.46 4.27A18.9 18.9 0 0140.1 5.7 9.09 9.09 0 0044.19.67c-1.8 1.04-3.8 1.8-5.93 2.22A9.37 9.37 0 0031.46 0a9.21 9.21 0 00-9.3 9.12c0 .7.08 1.4.24 2.09-7.75-.38-14.6-4-19.22-9.54a9.02 9.02 0 00-1.27 4.58 9.07 9.07 0 004.16 7.6 9.62 9.62 0 01-4.23-1.13v.1c0 4.43 3.2 8.12 7.47 8.95a9.88 9.88 0 01-4.2.15 9.3 9.3 0 008.7 6.34A18.95 18.95 0 010 32.04a26.9 26.9 0 0014.29 4.09c17.15 0 26.51-13.9 26.51-25.95 0-.4 0-.78-.02-1.18a18.38 18.38 0 004.68-4.73z" id="twitter"></path></svg>